<svg id="Layer_1" data-name="Layer 1" xmlns="http://www.w3.org/2000/svg" viewBox="0 0 1080 981"><defs><style>.cls-1{fill:#2e2a2b;}</style></defs><title>DIS_L_SYMBOL_RGB_DARK</title><rect class="cls-1" x="846.91" y="747.88" width="83.25" height="233.12"/><path class="cls-1" d="M712.46,134.06Q577.92,0,354.8,0H154.48V85.82H354.8q188,0,297.12,108.74T761.09,490.49q0,186.4-109.57,295.55T354.8,895.18H154.48V981H354.8q222.33,0,357.26-134.89T846.91,490.49q0-222.35-134.45-356.43Z"/><rect class="cls-1" x="996.75" y="747.88" width="83.25" height="233.12"/><rect class="cls-1" width="85.82" height="981"/><path class="cls-1" d="M597.16,247.29Q502,154.53,351.47,154.52h-197v672h197q150.5,0,245.69-93.21t95.21-242.79Q692.37,340.1,597.16,247.29ZM536.69,672.41q-69.86,68.26-185.22,68.26H240.37V240.34h111.1q116.16,0,185.62,67.86t69.45,182.29Q606.54,604.16,536.69,672.41Z"/></svg>