<svg id="Layer_1" data-name="Layer 1" xmlns="http://www.w3.org/2000/svg" viewBox="0 0 971.1 265.55"><defs><style>.cls-1{fill:#231f20;}</style></defs><title>DIS_L_TYPE_BLACK</title><path class="cls-1" d="M64.82,197.88h30q31.09,0,49.94-17.76t18.85-47.35q0-29.78-18.74-47.45t-50-17.66h-30ZM41.67,45.32H94.79q40.58,0,66.25,24.15t25.69,63.3q0,38.94-25.69,63.2T94.79,220.23H41.67Zm0-17.87V5.11h54q60.18,0,96.45,34.89t36.26,92.77q0,57.45-36.37,92.56T95.68,260.44h-54V238.1h54q50.48,0,80-28.41t29.54-76.92q0-48.72-29.43-77T95.68,27.45Zm-18.52,233H0V5.11H23.15Z"/><path class="cls-1" d="M326.27,260.44H303.12V5.11h23.15Zm-41.67,0H261.45V5.11H284.6Z"/><path class="cls-1" d="M454.57,40.21q32.85,0,71.43,15.54V78.52q-44.31-16-71.43-16Q441.79,62.56,435,67a14.36,14.36,0,0,0-6.83,12.76q0,11.07,16.31,17.66l20.28,8.09a305.9,305.9,0,0,1,30.64,13.83,115.08,115.08,0,0,1,21.72,15.21,52.19,52.19,0,0,1,14.77,21.28q4.51,12.24,4.52,28.83,0,38.3-25.46,59.58t-70.22,21.28q-35.28,0-78-15.32V226.61q42.54,16.59,78,16.59t54-15.1q18.53-15.1,18.52-43.41,0-11.7-3-20a36.36,36.36,0,0,0-10.37-14.89,78.67,78.67,0,0,0-16.2-11.18q-8.82-4.58-24.25-11l-19.62-8.09q-17.85-7.44-26.34-16.49T405,79.79q0-18.51,14-29t35.6-10.54m0-40.21Q489.84,0,526,13.4V37.24a180,180,0,0,0-71.43-14.9q-33.51,0-50.82,14.9t-17.3,43.62a59.49,59.49,0,0,0,3,19.89,35.45,35.45,0,0,0,10.14,14.79A81.26,81.26,0,0,0,415,126.39q8.26,4.47,22.16,10.21l18.07,7.45q20.73,8.52,30.09,18t9.37,25q0,13.2-8.48,22.24A45,45,0,0,1,466,221.82a87.88,87.88,0,0,1-25.36,3.51q-33.06,0-78-17.45V185.12q25.14,8.72,43.1,13.29A140.88,140.88,0,0,0,440.68,203q13.89,0,22.38-4.47t8.49-13a13.71,13.71,0,0,0-4.08-10.32q-4.08-3.93-13.34-7.55l-18.08-7.24q-14.78-6-24.47-10.74A158.19,158.19,0,0,1,391.85,138a64.35,64.35,0,0,1-15.65-14.58A67.23,67.23,0,0,1,366.94,105a75.14,75.14,0,0,1-3.64-24.14q0-38.52,24.14-59.69T454.57,0"/><path class="cls-1" d="M768.72,45.32V67.66h-75V260.44H670.62V45.32Zm-116.62,0V260.44H629V67.66H554V45.32ZM768.72,27.45H554V5.11H768.72Z"/><path class="cls-1" d="M797.38,5.11V260.44H971.1V238.1H820.53V5.11Zm41.66,0V220.22H971.1V197.88H862.19V5.11Z"/></svg>